<mxfile host="app.diagrams.net" modified="2022-05-11T16:52:18.961Z" agent="5.0 (Macintosh; Intel Mac OS X 10_15_7) AppleWebKit/537.36 (KHTML, like Gecko) Chrome/100.0.4896.127 Safari/537.36" etag="WL67m9Lpy4X5xDfFOZ0P" version="17.5.0" type="github">
  <diagram id="zwh3qw1FQX5kJViCthl1" name="第 1 页">
    <mxGraphModel dx="1298" dy="866" grid="1" gridSize="10" guides="1" tooltips="1" connect="1" arrows="1" fold="1" page="1" pageScale="1" pageWidth="827" pageHeight="1169" math="0" shadow="0">
      <root>
        <mxCell id="0" />
        <mxCell id="1" parent="0" />
        <mxCell id="qcC7Ru4h3FQqWyemKTz--5" value="" style="endArrow=classic;html=1;rounded=0;" edge="1" parent="1">
          <mxGeometry width="50" height="50" relative="1" as="geometry">
            <mxPoint x="120" y="600" as="sourcePoint" />
            <mxPoint x="720" y="600" as="targetPoint" />
          </mxGeometry>
        </mxCell>
        <mxCell id="qcC7Ru4h3FQqWyemKTz--6" value="" style="endArrow=classic;html=1;rounded=0;" edge="1" parent="1">
          <mxGeometry width="50" height="50" relative="1" as="geometry">
            <mxPoint x="160" y="640" as="sourcePoint" />
            <mxPoint x="160" y="160" as="targetPoint" />
          </mxGeometry>
        </mxCell>
        <mxCell id="qcC7Ru4h3FQqWyemKTz--9" value="" style="rounded=0;whiteSpace=wrap;html=1;strokeWidth=3;fillColor=none;" vertex="1" parent="1">
          <mxGeometry x="280" y="400" width="240" height="80" as="geometry" />
        </mxCell>
        <mxCell id="qcC7Ru4h3FQqWyemKTz--12" value="" style="endArrow=none;dashed=1;html=1;dashPattern=1 3;strokeWidth=2;rounded=0;" edge="1" parent="1">
          <mxGeometry width="50" height="50" relative="1" as="geometry">
            <mxPoint x="200" y="439.5" as="sourcePoint" />
            <mxPoint x="600" y="440" as="targetPoint" />
          </mxGeometry>
        </mxCell>
        <mxCell id="qcC7Ru4h3FQqWyemKTz--13" value="" style="endArrow=none;dashed=1;html=1;dashPattern=1 3;strokeWidth=2;rounded=0;" edge="1" parent="1">
          <mxGeometry width="50" height="50" relative="1" as="geometry">
            <mxPoint x="400" y="560" as="sourcePoint" />
            <mxPoint x="400" y="320" as="targetPoint" />
          </mxGeometry>
        </mxCell>
        <mxCell id="qcC7Ru4h3FQqWyemKTz--29" value="" style="group;rotation=90;" vertex="1" connectable="0" parent="1">
          <mxGeometry x="200" y="320" width="400" height="240" as="geometry" />
        </mxCell>
        <mxCell id="qcC7Ru4h3FQqWyemKTz--26" value="" style="rounded=0;whiteSpace=wrap;html=1;strokeWidth=3;fillColor=none;direction=west;rotation=45;" vertex="1" parent="qcC7Ru4h3FQqWyemKTz--29">
          <mxGeometry x="80" y="80" width="240" height="80" as="geometry" />
        </mxCell>
        <mxCell id="qcC7Ru4h3FQqWyemKTz--27" value="" style="endArrow=none;dashed=1;html=1;dashPattern=1 3;strokeWidth=2;rounded=0;strokeColor=#FF6666;" edge="1" parent="qcC7Ru4h3FQqWyemKTz--29">
          <mxGeometry width="50" height="50" relative="1" as="geometry">
            <mxPoint x="59" y="-22" as="sourcePoint" />
            <mxPoint x="341" y="261" as="targetPoint" />
          </mxGeometry>
        </mxCell>
        <mxCell id="qcC7Ru4h3FQqWyemKTz--28" value="" style="endArrow=none;dashed=1;html=1;dashPattern=1 3;strokeWidth=2;rounded=0;strokeColor=#FF3333;" edge="1" parent="qcC7Ru4h3FQqWyemKTz--29">
          <mxGeometry width="50" height="50" relative="1" as="geometry">
            <mxPoint x="115" y="205" as="sourcePoint" />
            <mxPoint x="285" y="35" as="targetPoint" />
          </mxGeometry>
        </mxCell>
        <mxCell id="qcC7Ru4h3FQqWyemKTz--32" value="r°" style="text;html=1;strokeColor=none;fillColor=none;align=center;verticalAlign=middle;whiteSpace=wrap;rounded=0;" vertex="1" parent="qcC7Ru4h3FQqWyemKTz--29">
          <mxGeometry x="130" y="90" width="60" height="30" as="geometry" />
        </mxCell>
        <mxCell id="qcC7Ru4h3FQqWyemKTz--34" value="" style="endArrow=none;html=1;rounded=0;strokeColor=#FF3333;strokeWidth=2;" edge="1" parent="1">
          <mxGeometry width="50" height="50" relative="1" as="geometry">
            <mxPoint x="280" y="440" as="sourcePoint" />
            <mxPoint x="320" y="350" as="targetPoint" />
          </mxGeometry>
        </mxCell>
        <mxCell id="qcC7Ru4h3FQqWyemKTz--35" value="x1" style="text;html=1;align=center;verticalAlign=middle;resizable=0;points=[];autosize=1;strokeColor=none;fillColor=none;" vertex="1" parent="1">
          <mxGeometry x="245" y="390" width="30" height="20" as="geometry" />
        </mxCell>
        <mxCell id="qcC7Ru4h3FQqWyemKTz--36" value="x2" style="text;html=1;align=center;verticalAlign=middle;resizable=0;points=[];autosize=1;strokeColor=none;fillColor=none;" vertex="1" parent="1">
          <mxGeometry x="325" y="300" width="30" height="20" as="geometry" />
        </mxCell>
      </root>
    </mxGraphModel>
  </diagram>
</mxfile>
